<?xml version="1.0" encoding="UTF-8"?>
<svg width="96px" height="96px" viewBox="0 0 96 96" version="1.1" xmlns="http://www.w3.org/2000/svg" xmlns:xlink="http://www.w3.org/1999/xlink">
    <title>shutterstock_1947830881</title>
    <defs>
        <path d="M24.598307,20.4 C21.8104257,20.4 18.4875085,14.6007577 13.251037,11.2322045 C7.71353366,7.67001272 0.0136428233,6.98615356 0,3.84973339 L0,3.83281918 C0.00207608181,3.34405672 0.190109777,2.79609452 0.601173975,2.16851886 C0.769633184,1.91101454 0.94728647,1.6616757 1.13265092,1.42079396 C1.74272239,1.19070233 2.36880934,0.985398768 3.00972545,0.807216274 C4.9728091,0.260712192 6.95101847,0 8.8951208,0 C17.4797191,0 25.4311124,5.07834689 28.8,13.0641888 C28.6576401,15.0790216 28.0312566,17.0428202 26.8769551,18.8056895 C26.1396495,19.9313596 25.3904805,20.4 24.598307,20.4" id="path-1"></path>
        <linearGradient x1="25.7986015%" y1="75.6806936%" x2="73.8890388%" y2="15.7420453%" id="linearGradient-3">
            <stop stop-color="#9ACDE0" offset="0%"></stop>
            <stop stop-color="#5F483D" offset="100%"></stop>
        </linearGradient>
        <path d="M27.5686587,16.8 C24.211788,8.736 16.2887576,3.60795092 7.73478089,3.60795092 C5.79761324,3.60795092 3.8264602,3.87121472 1.87037895,4.42306748 C1.23174901,4.60299387 0.607895323,4.81030675 0,5.04265031 C2.50546259,1.74537423 6.50332741,0.00412269939 10.774553,0 L10.8055832,0 C13.8672242,0.00294478528 17.0674665,0.898159509 19.9574074,2.7524908 C25.1515582,6.08539877 27.930086,11.6095215 27.5686587,16.8" id="path-4"></path>
        <linearGradient x1="22.7350851%" y1="85.400148%" x2="72.7374124%" y2="31.1272915%" id="linearGradient-6">
            <stop stop-color="#9ACDE0" offset="0%"></stop>
            <stop stop-color="#564238" offset="100%"></stop>
        </linearGradient>
    </defs>
    <g id="shutterstock_1947830881" stroke="none" stroke-width="1" fill="none" fill-rule="evenodd">
        <polygon id="Fill-3" stroke="#FAF6F6" fill="#9ACDE0" stroke-linejoin="round" points="1.2 97.2 97.2 97.2 97.2 1.2 1.2 1.2"></polygon>
        <path d="M94.8,94.8 L61.9487105,94.8 L31.2,64.320339 L31.2938205,64.227631 C35.7977923,68.6137705 41.927888,71.1693637 48.3753264,71.1693637 C50.5714317,71.1693637 52.8057712,70.8725813 55.0230523,70.2504463 C67.9708685,66.617924 75.4962131,53.2691333 71.8316259,40.4346098 C70.6748986,36.3831522 68.5414383,32.8672437 65.7556461,30.0667614 L65.8229969,30 L94.8,58.7234559 L94.8,94.8" id="Fill-4" fill="#9ACDE0"></path>
        <path d="M74.9162699,71.6137325 L72.7313876,73.747739 C71.8304803,74.6283635 70.3683272,74.6153954 69.4829004,73.7202948 L61.8561496,66.0142274 C61.6867741,65.8438326 61.5504846,65.6520254 61.4469774,65.4484564 C61.0077547,64.5850221 61.1549717,63.4981144 61.8837717,62.7866784 L64.068654,60.6526719 C64.8618046,59.8779033 66.0884105,59.7937615 66.9741408,60.3957226 C67.0961639,60.4771502 67.2105986,60.5724506 67.3168376,60.6795129 L74.9435885,68.3852787 C75.8293188,69.2806808 75.8171772,70.733108 74.9162699,71.6137325" id="Fill-5" fill="#FFFFFF"></path>
        <path d="M70.8,63.8549051 C67.2303205,64.0008554 64.9966997,65.9463245 63.919983,67.2 L62.8018312,66.1799519 C62.6354945,66.0289227 62.5016502,65.8589147 62.4,65.6784817 L65.8784627,62.0273189 L67.8279996,61.2 C67.9478335,61.2721732 68.0602151,61.3566426 68.1645481,61.451537 L70.8,63.8549051" id="Fill-6" fill="#E6E7E8"></path>
        <path d="M71.0869491,40.2657013 C74.6957693,53.0164715 67.284944,66.278153 54.5341652,69.8869708 C41.7836761,73.4957886 28.5216961,66.0846786 24.9130207,53.3341981 C21.3042583,40.5837176 28.7151706,27.3217465 41.4656597,23.7130155 C54.2164384,20.1042556 67.4781288,27.5152208 71.0869491,40.2657013" id="Fill-7" fill="#FFFFFF"></path>
        <path d="M68.7971367,40.6965256 C65.6231261,29.3835385 53.9581004,22.8082544 42.743147,26.0100443 C34.4764425,28.3701731 28.7621789,35.3838211 27.6,43.4392276 C30.2731565,39.0277803 34.5353495,35.5805229 39.8558362,34.0616456 C51.0710798,30.85968 62.7358153,37.4351398 65.9101161,48.7478342 C66.7443893,51.7220706 66.9083421,54.7270416 66.4936721,57.6 C69.4549792,52.7128973 70.4656831,46.642364 68.7971367,40.6965256" id="Fill-8" fill="#CCCCCC"></path>
        <path d="M27.6,51.6 C27.696029,52.0484157 27.8054845,52.4968314 27.9321611,52.9446632 C31.1250524,64.2274561 42.8581032,70.7855356 54.1390297,67.5920335 C58.4933173,66.3594742 62.1427112,63.8537763 64.8,60.5928367 C62.2089683,63.0491971 59.0029424,64.9330685 55.3296142,65.9726573 C43.6701175,69.2733004 31.5622908,62.8801654 27.6,51.6" id="Fill-9" fill="#E6E7E8"></path>
        <path d="M66.3921172,48.8270423 C63.1960757,37.7109103 51.4514487,31.2497017 40.1593921,34.3960318 C34.8024655,35.8885181 30.5110808,39.2758781 27.8196159,43.6106748 C27.4652144,46.0074542 27.5324133,48.4979993 28.0746798,50.98423 C32.0408799,62.0977734 44.1606525,68.3964739 55.8316529,65.1445853 C59.5086053,64.120065 62.7177944,62.2643083 65.3113825,59.8442314 C65.9205558,59.1081989 66.478015,58.3333371 66.97967,57.5253984 C67.3971801,54.7023587 67.2321044,51.7496002 66.3921172,48.8270423" id="Fill-10" fill="#CCCCCC"></path>
        <path d="M67.6694906,41.5725025 C70.5567169,51.7731116 64.6279941,62.3826702 54.4274177,65.269613 C44.2268412,68.1565557 33.6176095,62.2278139 30.7303832,52.0274975 C27.8434497,41.8268884 33.7721725,31.2173298 43.9727489,28.330387 C54.1730326,25.4434443 64.7825571,31.3721861 67.6694906,41.5725025" id="Fill-11" fill="#523E34"></path>
        <path d="M37.2,37.2348 C37.2,37.212 37.2,37.188 37.2,37.1652 L37.2,37.2348" id="Fill-12" fill="#523E34"></path>
        <g id="Group-15" transform="translate(37.200000, 33.600000)">
            <mask id="mask-2" fill="white">
                <use xlink:href="#path-1"></use>
            </mask>
            <g id="Clip-14"></g>
            <path d="M24.598307,20.4 C21.8104257,20.4 18.4875085,14.6007577 13.251037,11.2322045 C7.71353366,7.67001272 0.0136428233,6.98615356 0,3.84973339 L0,3.83281918 C0.00207608181,3.34405672 0.190109777,2.79609452 0.601173975,2.16851886 C0.769633184,1.91101454 0.94728647,1.6616757 1.13265092,1.42079396 C1.74272239,1.19070233 2.36880934,0.985398768 3.00972545,0.807216274 C4.9728091,0.260712192 6.95101847,0 8.8951208,0 C17.4797191,0 25.4311124,5.07834689 28.8,13.0641888 C28.6576401,15.0790216 28.0312566,17.0428202 26.8769551,18.8056895 C26.1396495,19.9313596 25.3904805,20.4 24.598307,20.4" id="Fill-13" fill="url(#linearGradient-3)" mask="url(#mask-2)"></path>
        </g>
        <path d="M27.6,43.2 C28.7842856,35.2504249 34.6072447,28.3286701 43.0311965,25.999464 C44.9890379,25.4581106 46.9598902,25.2 48.8988066,25.2 C58.2778752,25.2 66.9005386,31.2414055 69.5807794,40.4932331 C69.5872848,40.5154765 69.5937903,40.5374311 69.6,40.5596745 C66.8961031,31.3482896 58.2938431,25.3388049 48.9390221,25.3388049 C47.0001056,25.3388049 45.0292534,25.596771 43.071412,26.1381244 C34.7423804,28.4410428 28.956384,35.2333812 27.6822051,43.0700059 C27.6544091,43.1133372 27.6272046,43.1566686 27.6,43.2" id="Fill-16" fill="#E6E7E8"></path>
        <path d="M66.5642236,57.6 C66.6851718,56.6747074 66.7468088,55.7358379 66.7465181,54.7895896 C66.7462274,54.0670645 66.7098848,53.3404072 66.6357458,52.6110936 C67.7550983,49.0976379 67.8981428,45.2202633 66.8331589,41.4004427 C64.4569335,32.8774202 56.8142274,27.3126777 48.4993283,27.3126777 C46.7807588,27.3126777 45.0328245,27.550568 43.2976828,28.0490749 C37.5035074,29.7137162 33.0976197,33.9246094 30.9231685,39.1490449 C29.6433271,40.3966404 28.5286264,41.7988941 27.6,43.316256 C28.8528025,35.3094493 34.5417298,28.3696069 42.7310288,26.0166777 C44.6560243,25.4635682 46.5938124,25.2 48.5002005,25.2 C57.6980797,25.2 66.1560233,31.3399882 68.8145581,40.7514097 C70.4453239,46.6732826 69.4608752,52.7132152 66.5642236,57.6" id="Fill-17" fill="#B8B9BA"></path>
        <path d="M67.14,57.6 C67.2498872,56.0506662 67.2722691,54.4603565 67.1994604,52.8581415 C67.2025616,52.838761 67.2055278,52.8196574 67.2086289,52.8 C67.2430108,53.4841322 67.2598647,54.1657726 67.26,54.8435369 C67.2601344,55.7311646 67.2315502,56.6118706 67.1754605,57.4798408 C67.1637302,57.520263 67.152,57.5598546 67.14,57.6" id="Fill-18" fill="#B8B9BA"></path>
        <path d="M67.4429088,52.8 C67.3227535,51.520702 67.0839191,50.2343653 66.7190249,48.9536009 C66.484914,48.1318235 66.2056341,47.3355617 65.8841375,46.565402 C66.2451938,41.3960058 63.4695181,35.8943206 58.2806991,32.57495 C55.3937248,30.7281505 52.1967675,29.8365719 49.1382693,29.833639 C49.1329553,29.833639 49.1279365,29.833639 49.1229177,29.833639 C49.117899,29.833639 49.1122897,29.833639 49.107271,29.833639 C44.8404298,29.837745 40.8466687,31.571924 38.343778,34.8558075 C35.6159282,35.895787 33.2080989,37.4454914 31.2,39.3615055 C33.4079641,34.1701131 37.8817558,29.9858526 43.7652318,28.3317397 C45.5271157,27.8363856 47.3019894,27.6 49.0470457,27.6 C57.490095,27.6 65.2505915,33.129547 67.6634395,41.5986639 C68.7448371,45.3943252 68.599588,49.2471766 67.4629839,52.7384107 C67.4561938,52.7592337 67.4496989,52.7794702 67.4429088,52.8" id="Fill-19" fill="#4A382F"></path>
        <path d="M49.26,30 L49.14,30 C49.1594286,30 49.1811429,30 49.2005714,30 C49.22,30 49.2394286,30 49.26,30" id="Fill-20" fill="#4A382F"></path>
        <g id="Group-23" transform="translate(37.200000, 30.000000)">
            <mask id="mask-5" fill="white">
                <use xlink:href="#path-4"></use>
            </mask>
            <g id="Clip-22"></g>
            <path d="M27.5686587,16.8 C24.211788,8.736 16.2887576,3.60795092 7.73478089,3.60795092 C5.79761324,3.60795092 3.8264602,3.87121472 1.87037895,4.42306748 C1.23174901,4.60299387 0.607895323,4.81030675 0,5.04265031 C2.50546259,1.74537423 6.50332741,0.00412269939 10.774553,0 L10.8055832,0 C13.8672242,0.00294478528 17.0674665,0.898159509 19.9574074,2.7524908 C25.1515582,6.08539877 27.930086,11.6095215 27.5686587,16.8" id="Fill-21" fill="url(#linearGradient-6)" mask="url(#mask-5)"></path>
        </g>
    </g>
</svg>