
<svg width="80px" height="80px" viewBox="0 0 80 80" version="1.1" xmlns="http://www.w3.org/2000/svg" xmlns:xlink="http://www.w3.org/1999/xlink">
    <g id="Page-1" stroke="none" stroke-width="1" fill="none" fill-rule="evenodd">
        <g id="shutterstock_1947830881">
            <polygon id="Fill-3" stroke="#FAF6F6" fill="#DBC886" stroke-linejoin="round" points="1 79 79 79 79 1 1 1"></polygon>
            <path d="M79,79 L51.6239254,79 L26,53.6002825 L26.0781837,53.5230258 C29.8314936,57.1781421 34.9399067,59.3078031 40.312772,59.3078031 C42.1428598,59.3078031 44.0048093,59.0604845 45.8525436,58.5420386 C56.6423904,55.5149367 62.9135109,44.3909444 59.8596882,33.6955082 C58.8957488,30.3192935 57.1178652,27.3893698 54.7963717,25.0556345 L54.8524974,25 L79,48.9362133 L79,79" id="Fill-4" fill="#CCBA7D"></path>
            <path d="M62.4302249,59.6781104 L60.6094897,61.4564491 C59.8587336,62.1903029 58.6402727,62.1794961 57.902417,61.433579 L51.5467913,55.0118562 C51.4056451,54.8698605 51.2920705,54.7100211 51.2058145,54.5403803 C50.8397956,53.8208518 50.9624764,52.9150953 51.5698098,52.322232 L53.390545,50.5438933 C54.0515038,49.8982528 55.0736754,49.8281345 55.811784,50.3297688 C55.9134699,50.3976252 56.0088321,50.4770422 56.0973647,50.5662607 L62.4529904,56.9877322 C63.191099,57.7339007 63.180981,58.9442567 62.4302249,59.6781104" id="Fill-5" fill="#FFFFFF"></path>
            <path d="M59,53.2124209 C56.025267,53.3340462 54.1639164,54.9552704 53.2666525,56 L52.3348593,55.1499599 C52.1962454,55.0241023 52.0847085,54.8824289 52,54.7320681 L54.8987189,51.6894324 L56.523333,51 C56.6231946,51.0601443 56.7168459,51.1305355 56.8037901,51.2096142 L59,53.2124209" id="Fill-6" fill="#E6E7E8"></path>
            <path d="M59.2391242,33.5547511 C62.2464744,44.1803929 56.0707866,55.2317941 45.4451377,58.2391423 C34.8197301,61.2464905 23.7680801,55.0705655 20.7608505,44.4451651 C17.7535486,33.8197646 23.9293088,22.7681221 34.5547164,19.7608463 C45.1803654,16.7535463 56.231774,22.9293507 59.2391242,33.5547511" id="Fill-7" fill="#FFFFFF"></path>
            <path d="M57.3309472,33.9137714 C54.6859384,24.4862821 44.9650837,19.0068787 35.6192892,21.6750369 C28.7303688,23.6418109 23.9684824,29.4865176 23,36.1993564 C25.2276304,32.5231502 28.7794579,29.6504358 33.2131968,28.3847046 C42.5592332,25.7164 52.2798461,31.1959498 54.9250967,40.6231952 C55.6203244,43.1017255 55.7569518,45.605868 55.4113934,48 C57.8791494,43.9274144 58.7214026,38.8686367 57.3309472,33.9137714" id="Fill-8" fill="#CCCCCC"></path>
            <path d="M23,43 C23.0800242,43.3736797 23.1712371,43.7473595 23.2768009,44.1205527 C25.9375436,53.5228801 35.715086,58.9879464 45.1158581,56.3266946 C48.7444311,55.2995618 51.7855927,53.2114803 54,50.4940306 C51.8408069,52.5409976 49.1691186,54.1108904 46.1080118,54.9772144 C36.3917645,57.7277503 26.301909,52.4001379 23,43" id="Fill-9" fill="#E6E7E8"></path>
            <path d="M55.3267644,40.6892019 C52.6633965,31.4257586 42.8762072,26.0414181 33.4661601,28.6633599 C29.0020545,29.9070984 25.4259006,32.7298984 23.1830132,36.342229 C22.8876786,38.3395452 22.9436778,40.4149994 23.3955665,42.4868584 C26.7007333,51.7481445 36.8005438,56.9970616 46.5263774,54.2871545 C49.5905044,53.4333875 52.2648286,51.8869236 54.4261521,49.8701928 C54.9337965,49.2568324 55.3983459,48.6111142 55.8163916,47.937832 C56.1643167,45.585299 56.0267536,43.1246668 55.3267644,40.6892019" id="Fill-10" fill="#CCCCCC"></path>
            <path d="M56.3912422,34.6437521 C58.797264,43.1442597 53.8566617,51.9855585 45.3561814,54.3913441 C36.855701,56.7971298 28.0146745,51.8565116 25.6086527,43.3562479 C23.2028748,34.8557403 28.1434771,26.0144415 36.6439574,23.6086559 C45.1441939,21.2028702 53.9854643,26.1434884 56.3912422,34.6437521" id="Fill-11" fill="#523E34"></path>
            <path d="M31,31.029 C31,31.01 31,30.99 31,30.971 L31,31.029" id="Fill-12" fill="#523E34"></path>
            <g id="Group-15" transform="translate(31.000000, 28.000000)">
                <mask id="mask-2" fill="white">
                    <use xlink:href="#path-1"></use>
                </mask>
                <g id="Clip-14"></g>
                <path d="M20.4985892,17 C18.1753548,17 15.4062571,12.167298 11.0425308,9.3601704 C6.42794472,6.39167727 0.0113690194,5.82179463 0,3.20811116 L0,3.19401598 C0.00173006817,2.78671394 0.158424814,2.33007877 0.500978312,1.80709905 C0.641360987,1.59251212 0.789405392,1.38472975 0.943875765,1.18399497 C1.45226865,0.992251941 1.97400779,0.82116564 2.50810455,0.672680228 C4.14400758,0.21726016 5.7925154,0 7.41260066,0 C14.5664326,0 21.1925937,4.23195574 24,10.886824 C23.8813668,12.5658514 23.3593805,14.2023501 22.3974626,15.6714079 C21.7830412,16.6094664 21.1587338,17 20.4985892,17" id="Fill-13" fill="url(#linearGradient-3)" mask="url(#mask-2)"></path>
            </g>
            <path d="M23,36 C23.9869046,29.3753541 28.8393706,23.6072251 35.8593304,21.66622 C37.4908649,21.2150922 39.1332418,21 40.7490055,21 C48.564896,21 55.7504488,26.0345046 57.9839828,33.7443609 C57.989404,33.7628971 57.9948252,33.7811926 58,33.7997288 C55.7467526,26.1235747 48.5782026,21.1156707 40.7825184,21.1156707 C39.1667547,21.1156707 37.5243778,21.3306425 35.8928433,21.7817703 C28.9519837,23.700869 24.13032,29.361151 23.0685042,35.8916715 C23.0453409,35.927781 23.0226705,35.9638905 23,36" id="Fill-16" fill="#E6E7E8"></path>
            <path d="M55.4701863,48 C55.5709765,47.2289228 55.6223407,46.4465315 55.6220984,45.6579913 C55.6218561,45.055887 55.5915706,44.4503393 55.5297882,43.842578 C56.4625819,40.9146982 56.5817857,37.6835527 55.6942991,34.5003689 C53.7141112,27.3978501 47.3451895,22.7605648 40.4161069,22.7605648 C38.9839657,22.7605648 37.5273538,22.9588066 36.0814023,23.3742291 C31.2529228,24.7614302 27.5813498,28.2705079 25.7693071,32.6242041 C24.7027726,33.663867 23.7738554,34.8324118 23,36.09688 C24.0440021,29.4245411 28.7847748,23.6413391 35.6091907,21.6805648 C37.2133536,21.2196402 38.828177,21 40.4168338,21 C48.0817331,21 55.1300194,26.1166568 57.3454651,33.9595081 C58.7044366,38.8944022 57.8840626,43.9276793 55.4701863,48" id="Fill-17" fill="#B8B9BA"></path>
            <path d="M55.95,48 C56.0415727,46.7088885 56.0602243,45.3836304 55.9995504,44.0484513 C56.0021346,44.0323009 56.0046065,44.0163812 56.0071908,44 C56.0358424,44.5701102 56.0498872,45.1381439 56.05,45.7029475 C56.050112,46.4426371 56.0262918,47.1765588 55.9795504,47.8998673 C55.9697752,47.9335525 55.96,47.9665455 55.95,48" id="Fill-18" fill="#B8B9BA"></path>
            <path d="M56.202424,44 C56.1022946,42.9339183 55.9032659,41.861971 55.5991874,40.7946674 C55.404095,40.1098529 55.1713617,39.4463014 54.9034479,38.8045017 C55.2043282,34.4966715 52.8912651,29.9119338 48.5672493,27.1457916 C46.1614373,25.606792 43.4973062,24.8638099 40.9485577,24.8613659 C40.9441294,24.8613659 40.9399471,24.8613659 40.9357648,24.8613659 C40.9315825,24.8613659 40.9269081,24.8613659 40.9227258,24.8613659 C37.3670248,24.8647875 34.0388906,26.3099367 31.9531483,29.0465062 C29.6799402,29.9131558 27.6734158,31.2045761 26,32.8012546 C27.8399701,28.4750943 31.5681299,24.9882105 36.4710265,23.6097831 C37.9392631,23.196988 39.4183245,23 40.8725381,23 C47.9084125,23 54.3754929,27.6079559 56.3861996,34.6655533 C57.2873643,37.8286043 57.1663233,41.0393138 56.2191533,43.9486756 C56.2134948,43.9660281 56.2080824,43.9828919 56.202424,44" id="Fill-19" fill="#4A382F"></path>
            <path d="M41.05,25 L40.95,25 C40.9661905,25 40.9842857,25 41.0004762,25 C41.0166667,25 41.0328571,25 41.05,25" id="Fill-20" fill="#4A382F"></path>
            <g id="Group-23" transform="translate(31.000000, 25.000000)">
                <mask id="mask-5" fill="white">
                    <use xlink:href="#path-4"></use>
                </mask>
                <g id="Clip-22"></g>
                <path d="M22.9738823,14 C20.17649,7.28 13.5739647,3.00662577 6.44565074,3.00662577 C4.83134437,3.00662577 3.18871684,3.22601227 1.55864912,3.68588957 C1.02645751,3.83582822 0.506579436,4.00858896 0,4.20220859 C2.08788549,1.45447853 5.4194395,0.00343558282 8.97879419,0 L9.00465264,0 C11.5560201,0.00245398773 14.2228887,0.748466258 16.6311728,2.29374233 C20.9596318,5.07116564 23.2750717,9.67460123 22.9738823,14" id="Fill-21" fill="url(#linearGradient-6)" mask="url(#mask-5)"></path>
            </g>
        </g>
    </g>
</svg>